<svg xmlns="http://www.w3.org/2000/svg" xmlns:xlink="http://www.w3.org/1999/xlink"><symbol viewBox="0 0 16 18" id="adjustment">
<path d="M5.91106 4.29814C5.91106 2.90551 4.93697 1.73697 3.6345 1.4358V0.661897C3.6345 0.296309 3.33819 0 2.9726 0C2.60702 0 2.31071 0.296309 2.31071 0.661897V1.4358C1.00831 1.73689 0.0341492 2.90551 0.0341492 4.29814C0.0341492 5.69077 1.00824 6.85931 2.31071 7.16048V17.3381C2.31071 17.7037 2.60702 18 2.9726 18C3.33819 18 3.6345 17.7037 3.6345 17.3381V7.16048C4.93697 6.85931 5.91106 5.69077 5.91106 4.29814ZM1.35802 4.29814C1.35802 3.40781 2.08235 2.68348 2.97268 2.68348C3.863 2.68348 4.58734 3.40781 4.58734 4.29814C4.58734 5.18846 3.863 5.9128 2.97268 5.9128C2.08235 5.9128 1.35802 5.18846 1.35802 4.29814Z" />
<path d="M8.66191 8.89222V0.661897C8.66191 0.296309 8.3656 0 8.00001 0C7.63442 0 7.33811 0.296309 7.33811 0.661897V8.89222C6.03572 9.19331 5.06155 10.3619 5.06155 11.7546C5.06155 13.1472 6.03565 14.3157 7.33811 14.6169V17.3381C7.33811 17.7037 7.63442 18 8.00001 18C8.3656 18 8.66191 17.7037 8.66191 17.3381V14.6169C9.9643 14.3158 10.9385 13.1472 10.9385 11.7546C10.9385 10.3619 9.96437 9.19338 8.66191 8.89222ZM6.38542 11.7546C6.38542 10.8642 7.10976 10.1399 8.00008 10.1399C8.89041 10.1399 9.61474 10.8642 9.61474 11.7546C9.61474 12.6449 8.89041 13.3692 8.00008 13.3692C7.10976 13.3692 6.38542 12.6449 6.38542 11.7546Z" />
<path d="M15.9657 7.20151C15.9657 5.80888 14.9916 4.64034 13.6891 4.33918V0.661897C13.6891 0.296309 13.3928 0 13.0272 0C12.6616 0 12.3653 0.296309 12.3653 0.661897V4.33918C11.0629 4.64027 10.0887 5.80888 10.0887 7.20151C10.0887 8.59415 11.0628 9.76269 12.3653 10.0639V17.3381C12.3653 17.7037 12.6616 18 13.0272 18C13.3928 18 13.6891 17.7037 13.6891 17.3381V10.0639C14.9916 9.76269 15.9657 8.59415 15.9657 7.20151ZM11.4126 7.20151C11.4126 6.31119 12.1369 5.58685 13.0273 5.58685C13.9176 5.58685 14.6419 6.31119 14.6419 7.20151C14.6419 8.09184 13.9176 8.81618 13.0273 8.81618C12.1369 8.81618 11.4126 8.09184 11.4126 7.20151Z" />
</symbol><symbol viewBox="0 0 16 15" id="cellphone">
<path d="M10.7273 0L5.27271 0C4.3318 0 3.56818 0.763626 3.56818 1.70454V13.2955C3.56818 14.2364 4.3318 15 5.27271 15H10.7273C11.6682 15 12.4318 14.2364 12.4318 13.2955V1.70454C12.4318 0.763626 11.6682 0 10.7273 0ZM8.00001 14.3182C7.43409 14.3182 6.97728 13.8614 6.97728 13.2955C6.97728 12.7295 7.43409 12.2727 8.00001 12.2727C8.56593 12.2727 9.02274 12.7295 9.02274 13.2955C9.02274 13.8614 8.5659 14.3182 8.00001 14.3182ZM11.0682 11.5909H4.93182V2.04546H11.0682V11.5909Z" />
</symbol><symbol viewBox="0 0 10 10" id="cross">
<path d="M5.91628 5.00007L9.81017 1.10608C10.0636 0.852787 10.0636 0.443255 9.81017 0.189966C9.55688 -0.0633221 9.14735 -0.0633221 8.89406 0.189966L5.00005 4.08396L1.10617 0.189966C0.852759 -0.0633221 0.443344 -0.0633221 0.190056 0.189966C-0.0633519 0.443255 -0.0633519 0.852787 0.190056 1.10608L4.08394 5.00007L0.190056 8.89407C-0.0633519 9.14736 -0.0633519 9.55689 0.190056 9.81018C0.316285 9.93653 0.482257 10 0.648111 10C0.813965 10 0.979819 9.93653 1.10617 9.81018L5.00005 5.91618L8.89406 9.81018C9.0204 9.93653 9.18626 10 9.35211 10C9.51797 10 9.68382 9.93653 9.81017 9.81018C10.0636 9.55689 10.0636 9.14736 9.81017 8.89407L5.91628 5.00007Z" />
</symbol><symbol viewBox="0 0 31 30" id="facebook1">
<path d="M15.8047 4.75C10.2827 4.75 5.80566 9.227 5.80566 14.749C5.80566 19.739 9.46166 23.875 14.2427 24.628V17.64H11.7027V14.749H14.2427V12.546C14.2427 10.038 15.7357 8.655 18.0187 8.655C19.1127 8.655 20.2587 8.85 20.2587 8.85V11.309H18.9947C17.7547 11.309 17.3667 12.081 17.3667 12.872V14.747H20.1377L19.6947 17.638H17.3667V24.626C22.1477 23.877 25.8037 19.74 25.8037 14.749C25.8037 9.227 21.3267 4.75 15.8047 4.75Z" />
</symbol><symbol viewBox="0 0 19 18" id="facebook2">
<path d="M12.0501 3.02607H13.6833V0.181636C13.4015 0.142876 12.4325 0.0556641 11.304 0.0556641C8.94929 0.0556641 7.33625 1.53677 7.33625 4.25896V6.76424H4.73779V9.9441H7.33625V17.9452H10.5221V9.94485H13.0154L13.4112 6.76498H10.5213V4.57426C10.5221 3.65519 10.7695 3.02607 12.0501 3.02607Z" />
</symbol><symbol viewBox="0 0 15 15" id="hamburger">
<rect y="0.5" width="14.5036" height="3.22302" rx="1" />
<rect y="11.2773" width="14.5036" height="3.22302" rx="1" />
<rect y="5.88867" width="14.5036" height="3.22302" rx="1" />
</symbol><symbol viewBox="0 0 16 16" fill="none" id="heart">
<path d="m4.4 1.7c0.7 0 1.4 0.29 2 0.73l5e-5 4e-5c0.29 0.23 0.82 0.86 0.82 0.86l0.81 1.1 0.81-1.1c0.82-0.96 1.4-1.4 2.7-1.5 0.96 0 1.8 0.38 2.5 1.1 0.63 0.69 1 1.6 1 2.7s-0.38 2.1-1.3 3.2-2.3 2.3-3.9 3.6l-9e-5 1e-4 -0.015 0.013c-0.54 0.46-1.1 0.98-1.8 1.5-0.64-0.56-1.3-1.1-1.8-1.5l-0.0029-0.0025h-5e-5c-1.6-1.4-2.9-2.5-3.9-3.6-0.97-1.2-1.4-2.2-1.4-3.3s0.37-2.1 1-2.7 1.5-1.1 2.5-1.1z" stroke-width="2" />
</symbol><symbol viewBox="0 0 12 12" id="house">
<path d="M11.7985 5.36428L6.41446 0.458394C6.17814 0.243027 5.82177 0.243051 5.58554 0.458371L0.201516 5.3643C0.0122119 5.5368 -0.0503192 5.80258 0.042165 6.04138C0.134673 6.28019 0.359907 6.43448 0.616008 6.43448H1.47593V11.3498C1.47593 11.5447 1.63394 11.7027 1.82883 11.7027H4.77993C4.97481 11.7027 5.13283 11.5447 5.13283 11.3498V8.36537H6.86724V11.3498C6.86724 11.5447 7.02526 11.7027 7.22014 11.7027H10.1711C10.366 11.7027 10.524 11.5447 10.524 11.3498V6.43448H11.3841C11.6402 6.43448 11.8654 6.28016 11.9579 6.04138C12.0503 5.80256 11.9878 5.5368 11.7985 5.36428Z" />
<path d="M10.4317 1.00195H8.06177L10.7846 3.47779V1.35483C10.7846 1.15995 10.6266 1.00195 10.4317 1.00195Z" />
</symbol><symbol viewBox="0 0 31 30" id="instagram">
<path d="M15.8055 8.99111C12.4803 8.99111 9.7967 11.6747 9.7967 14.9999C9.7967 18.3251 12.4803 21.0087 15.8055 21.0087C19.1307 21.0087 21.8143 18.3251 21.8143 14.9999C21.8143 11.6747 19.1307 8.99111 15.8055 8.99111ZM15.8055 18.9052C13.6551 18.9052 11.9002 17.1503 11.9002 14.9999C11.9002 12.8495 13.6551 11.0946 15.8055 11.0946C17.9559 11.0946 19.7108 12.8495 19.7108 14.9999C19.7108 17.1503 17.9559 18.9052 15.8055 18.9052ZM22.0604 7.34462C21.284 7.34462 20.6571 7.97158 20.6571 8.74794C20.6571 9.52431 21.284 10.1513 22.0604 10.1513C22.8367 10.1513 23.4637 9.52724 23.4637 8.74794C23.4639 8.56359 23.4278 8.381 23.3573 8.21064C23.2869 8.04028 23.1835 7.88549 23.0532 7.75513C22.9228 7.62477 22.768 7.52141 22.5977 7.45097C22.4273 7.38053 22.2447 7.34439 22.0604 7.34462ZM27.5184 14.9999C27.5184 13.3827 27.533 11.7802 27.4422 10.1659C27.3514 8.29091 26.9237 6.62685 25.5526 5.25575C24.1785 3.88173 22.5174 3.45693 20.6424 3.36611C19.0252 3.27529 17.4227 3.28993 15.8084 3.28993C14.1912 3.28993 12.5887 3.27529 10.9744 3.36611C9.09944 3.45693 7.43538 3.88466 6.06428 5.25575C4.69026 6.62978 4.26545 8.29091 4.17463 10.1659C4.08381 11.7831 4.09846 13.3856 4.09846 14.9999C4.09846 16.6142 4.08381 18.2196 4.17463 19.8339C4.26545 21.7089 4.69319 23.3729 6.06428 24.744C7.43831 26.1181 9.09944 26.5429 10.9744 26.6337C12.5916 26.7245 14.1942 26.7099 15.8084 26.7099C17.4256 26.7099 19.0281 26.7245 20.6424 26.6337C22.5174 26.5429 24.1815 26.1151 25.5526 24.744C26.9266 23.37 27.3514 21.7089 27.4422 19.8339C27.536 18.2196 27.5184 16.6171 27.5184 14.9999ZM24.9403 21.9081C24.7264 22.4413 24.4686 22.8397 24.0555 23.2499C23.6424 23.663 23.2469 23.9208 22.7137 24.1347C21.1727 24.747 17.5135 24.6093 15.8055 24.6093C14.0975 24.6093 10.4354 24.747 8.89436 24.1376C8.36116 23.9237 7.96272 23.6659 7.55256 23.2528C7.13948 22.8397 6.88167 22.4442 6.6678 21.911C6.05842 20.3671 6.19612 16.7079 6.19612 14.9999C6.19612 13.2919 6.05842 9.62978 6.6678 8.08876C6.88167 7.55556 7.13948 7.15712 7.55256 6.74697C7.96565 6.33681 8.36116 6.07607 8.89436 5.8622C10.4354 5.25283 14.0975 5.39052 15.8055 5.39052C17.5135 5.39052 21.1756 5.25283 22.7166 5.8622C23.2498 6.07607 23.6483 6.33388 24.0584 6.74697C24.4715 7.16005 24.7293 7.55556 24.9432 8.08876C25.5526 9.62978 25.4149 13.2919 25.4149 14.9999C25.4149 16.7079 25.5526 20.3671 24.9403 21.9081Z" />
</symbol><symbol viewBox="0 0 18 18" fill="none" id="mark">
<path d="M4.5 6.75L9 11.25L13.5 6.75" stroke-width="2" stroke-linecap="round" stroke-linejoin="round" />
</symbol><symbol viewBox="0 0 20 21" id="metro">
<path d="M19.6401 15.0886H18.3812L14.4755 4.12109L9.99979 10.8108L5.21594 4.20059L1.61882 15.0886H0.359905L0 16.5487H4.77911L6.65514 11.2111L10.0565 15.9056L10.0769 15.9351L10.0978 15.9056L13.3449 11.2111L15.2209 16.5487H20L19.6401 15.0886Z" />
</symbol><symbol viewBox="0 0 70 70" id="points">
<circle cx="6.90332" cy="3.28809" r="2.5" />
<circle cx="6.90332" cy="40.7505" r="2.5" />
<circle cx="6.90332" cy="22.0195" r="2.5" />
<circle cx="6.90332" cy="59.4819" r="2.5" />
<circle cx="25.6345" cy="3.28809" r="2.5" />
<circle cx="25.6345" cy="40.7505" r="2.5" />
<circle cx="25.6345" cy="22.0195" r="2.5" />
<circle cx="25.6345" cy="59.4814" r="2.5" />
<circle cx="44.3657" cy="3.28809" r="2.5" />
<circle cx="44.3657" cy="40.7505" r="2.5" />
<circle cx="44.3657" cy="22.0195" r="2.5" />
<circle cx="44.3657" cy="59.4819" r="2.5" />
<circle cx="63.0969" cy="3.28809" r="2.5" />
<circle cx="63.0969" cy="40.7505" r="2.5" />
<circle cx="63.0969" cy="22.0195" r="2.5" />
<circle cx="63.0969" cy="59.4814" r="2.5" />
</symbol><symbol viewBox="0 0 13 15" id="sign">
<path d="M11.5069 2.61628C10.4081 0.941861 8.59415 0 6.55346 0C4.5302 0 2.71625 0.941861 1.58253 2.61628C0.448804 4.25581 0.187176 6.34884 0.884851 8.18023C1.07671 8.6686 1.37322 9.17442 1.75694 9.62791L6.16973 14.8256C6.27439 14.9302 6.37904 15 6.53601 15C6.69299 15 6.79764 14.9302 6.90229 14.8256L11.3325 9.62791C11.7162 9.17442 12.0302 8.68605 12.2046 8.18023C12.9023 6.34884 12.6407 4.25581 11.5069 2.61628ZM6.55346 8.7907C5.05346 8.7907 3.81508 7.55233 3.81508 6.05233C3.81508 4.55233 5.05346 3.31395 6.55346 3.31395C8.05346 3.31395 9.29183 4.55233 9.29183 6.05233C9.29183 7.55233 8.0709 8.7907 6.55346 8.7907Z" />
</symbol><symbol viewBox="0 0 15 16" id="sorting">
<path d="M7.32377 6.74139H11.4812C11.5828 6.74139 11.6651 6.65952 11.6651 6.55807V4.37278C11.6651 4.27148 11.5831 4.18945 11.4812 4.18945H7.32377C7.22248 4.18945 7.14014 4.27133 7.14014 4.37278V6.55822C7.14014 6.65952 7.22232 6.74139 7.32377 6.74139Z" />
<path d="M7.32377 3.07081H9.67312C9.77442 3.07081 9.85676 2.98862 9.85676 2.88717V0.70219C9.85676 0.600585 9.77473 0.518555 9.67312 0.518555H7.32377C7.22248 0.518555 7.14014 0.600429 7.14014 0.70219V2.88717C7.14014 2.98862 7.22232 3.07081 7.32377 3.07081Z" />
<path d="M7.32377 11.1105H13.069C13.1701 11.1105 13.2525 11.0287 13.2525 10.9272V8.74223C13.2525 8.64093 13.1704 8.55859 13.069 8.55859H7.32377C7.22248 8.55859 7.14014 8.64078 7.14014 8.74223V10.9272C7.14014 11.0285 7.22232 11.1105 7.32377 11.1105Z" />
<path d="M14.6563 12.9297H7.32377C7.22248 12.9297 7.14014 13.0114 7.14014 13.1135V15.2981C7.14014 15.3994 7.22232 15.4818 7.32377 15.4818H14.6565C14.7577 15.4818 14.8399 15.3996 14.8399 15.2981V13.1132C14.8398 13.0114 14.7579 12.9297 14.6563 12.9297Z" />
<path d="M6.08745 10.6908H4.84286V0.81072C4.84286 0.639047 4.70366 0.5 4.53214 0.5H2.02618C1.85467 0.5 1.71546 0.639047 1.71546 0.81072V10.6908H0.471031C0.351248 10.6908 0.242341 10.7597 0.190761 10.8676C0.139027 10.9755 0.153786 11.1033 0.228669 11.1965L3.03696 15.3841C3.09599 15.4577 3.18501 15.5 3.27916 15.5C3.37331 15.5 3.46218 15.4577 3.52121 15.3841L6.3295 11.1965C6.40438 11.1032 6.4193 10.9755 6.36756 10.8676C6.31598 10.7598 6.20723 10.6908 6.08745 10.6908Z" />
</symbol><symbol viewBox="0 0 19 18" id="telegram">
<path d="M15.7559 2.82641L2.54004 7.92269C1.63811 8.28496 1.64332 8.7881 2.37456 9.01246L5.7676 10.0709L13.6181 5.11776C13.9893 4.89191 14.3285 5.01341 14.0497 5.26088L7.68924 11.0012H7.68775L7.68924 11.0019L7.45518 14.4993C7.79806 14.4993 7.94938 14.3421 8.14169 14.1564L9.78976 12.5538L13.2178 15.086C13.8499 15.4341 14.3039 15.2552 14.4612 14.5008L16.7115 3.89531C16.9418 2.97177 16.3589 2.5536 15.7559 2.82641Z" />
</symbol><symbol viewBox="0 0 14 15" id="tiles">
<rect y="0.5" width="5.44444" height="5.44444" rx="1" />
<rect y="9.05566" width="5.44444" height="5.44444" rx="1" />
<rect x="8.55566" y="0.5" width="5.44444" height="5.44444" rx="1" />
<rect x="8.55566" y="9.05566" width="5.44444" height="5.44444" rx="1" />
</symbol><symbol viewBox="0 0 20 21" id="user">
<path d="M10.0014 0.0527344C7.14421 0.0527344 4.80862 2.38832 4.80862 5.24549C4.80862 8.10265 7.14421 10.4382 10.0014 10.4382C12.8585 10.4382 15.1941 8.10265 15.1941 5.24549C15.1941 2.38832 12.8585 0.0527344 10.0014 0.0527344Z" />
<path d="M18.9131 14.5878C18.7771 14.2476 18.5957 13.9302 18.3916 13.6354C17.3485 12.0934 15.7386 11.073 13.9245 10.8236C13.6978 10.8009 13.4483 10.8462 13.2669 10.9823C12.3145 11.6852 11.1808 12.048 10.0016 12.048C8.82243 12.048 7.68866 11.6852 6.73628 10.9823C6.55485 10.8462 6.30542 10.7782 6.07868 10.8236C4.26462 11.073 2.63198 12.0934 1.61158 13.6354C1.4075 13.9302 1.22608 14.2703 1.09005 14.5878C1.02204 14.7238 1.0447 14.8826 1.11271 15.0186C1.29413 15.3361 1.52087 15.6536 1.72495 15.9257C2.0424 16.3565 2.38254 16.742 2.76805 17.1048C3.08549 17.4222 3.4483 17.717 3.81115 18.0118C5.60251 19.3497 7.75672 20.0526 9.97894 20.0526C12.2012 20.0526 14.3554 19.3497 16.1467 18.0118C16.5095 17.7397 16.8723 17.4222 17.1898 17.1048C17.5526 16.742 17.9154 16.3565 18.2329 15.9257C18.4597 15.6309 18.6638 15.3361 18.8452 15.0186C18.9585 14.8826 18.9812 14.7238 18.9131 14.5878Z" />
</symbol><symbol viewBox="0 0 19 18" id="viber">
<path d="M9.08751 1.45441C7.82648 1.47144 5.11314 1.67844 3.59532 3.06918C2.46858 4.18937 2.07488 5.84082 2.02902 7.88599C1.98972 9.92329 1.94386 13.749 5.63196 14.7912V16.3765C5.63196 16.3765 5.60707 17.0119 6.02632 17.1429C6.54383 17.3067 6.83862 16.816 7.32993 16.292L8.24704 15.257C10.7691 15.4666 12.7016 14.9825 12.9243 14.9104C13.4353 14.7466 16.3183 14.3791 16.7899 10.5528C17.2747 6.60203 16.5541 4.11272 15.2571 2.98598L15.2505 2.98467C14.8575 2.62438 13.2853 1.47799 9.76748 1.46489C9.76748 1.46489 9.50807 1.44851 9.08751 1.45441ZM9.1314 2.56608C9.48842 2.56411 9.70787 2.57918 9.70787 2.57918C12.6819 2.58573 14.1041 3.48319 14.4382 3.78453C15.5322 4.72064 16.0942 6.9656 15.6829 10.2646C15.2898 13.4614 12.9512 13.6645 12.5188 13.802C12.3354 13.861 10.6322 14.2802 8.48877 14.1427C8.48877 14.1427 6.89103 16.0693 6.39317 16.5671C6.31456 16.6523 6.22284 16.6785 6.16389 16.6654C6.07873 16.6457 6.05252 16.5409 6.05907 16.3968L6.07218 13.764C2.94679 12.8993 3.13021 9.6357 3.16296 7.9325C3.20227 6.22929 3.52326 4.83266 4.47312 3.88934C5.75512 2.72985 8.05969 2.57263 9.13075 2.56608H9.1314ZM9.36723 4.26929C9.34145 4.2692 9.31591 4.2742 9.29207 4.28401C9.26823 4.29381 9.24656 4.30823 9.22831 4.32642C9.21005 4.34462 9.19556 4.36624 9.18568 4.39005C9.17579 4.41385 9.17071 4.43938 9.17071 4.46516C9.17071 4.51728 9.19141 4.56726 9.22827 4.60412C9.26512 4.64097 9.31511 4.66168 9.36723 4.66168C9.85425 4.65239 10.3383 4.73965 10.7914 4.91842C11.2445 5.09719 11.6577 5.36394 12.0072 5.70326C12.7212 6.39764 13.0691 7.32786 13.0822 8.54631C13.0822 8.57211 13.0873 8.59767 13.0972 8.62151C13.107 8.64536 13.1215 8.66702 13.1398 8.68527C13.158 8.70352 13.1797 8.71799 13.2035 8.72787C13.2274 8.73775 13.2529 8.74283 13.2787 8.74283V8.73694C13.3308 8.73694 13.3808 8.71623 13.4177 8.67937C13.4545 8.64252 13.4752 8.59253 13.4752 8.54041C13.4995 7.9674 13.4069 7.39544 13.2031 6.85937C12.9993 6.32329 12.6884 5.83432 12.2895 5.42223C11.51 4.66233 10.5261 4.26929 9.36658 4.26929H9.36723ZM6.77704 4.72129C6.63773 4.70144 6.4958 4.72913 6.37417 4.7999H6.36631C6.09772 4.95712 5.8501 5.15364 5.61427 5.41568C5.4374 5.6253 5.33849 5.83427 5.31228 6.03735C5.29687 6.15645 5.30805 6.27749 5.34504 6.39175L5.35814 6.3983C5.56005 6.9919 5.82352 7.56274 6.14424 8.10151C6.55996 8.85604 7.07072 9.55416 7.66402 10.1788L7.68367 10.205L7.70988 10.2246L7.72953 10.2443L7.74918 10.2639C8.37624 10.8587 9.07621 11.3716 9.83234 11.7903C10.697 12.2619 11.2224 12.4847 11.5369 12.5764V12.5829C11.6286 12.6091 11.7124 12.6222 11.7976 12.6222C12.066 12.6026 12.3201 12.4938 12.5195 12.313C12.775 12.0837 12.978 11.8296 13.1287 11.561V11.5544C13.2794 11.2728 13.227 11.0035 13.0108 10.8201C12.5751 10.439 12.1034 10.1011 11.6024 9.81127C11.2683 9.62784 10.9276 9.73921 10.7901 9.92263L10.4953 10.2954C10.3446 10.4788 10.0695 10.4526 10.0695 10.4526L10.0616 10.4591C8.01776 9.93508 7.47405 7.86568 7.47405 7.86568C7.47405 7.86568 7.44784 7.58399 7.63782 7.43988L8.00466 7.14509C8.18153 7.00097 8.306 6.66033 8.11603 6.32624C7.82658 5.82493 7.48869 5.3532 7.1072 4.91782C7.02422 4.8149 6.90707 4.74517 6.77704 4.72129ZM9.70722 5.30431C9.6551 5.30449 9.60518 5.32536 9.56845 5.36234C9.53171 5.39932 9.51117 5.44937 9.51135 5.50149C9.51152 5.55361 9.53239 5.60353 9.56937 5.64026C9.60635 5.677 9.6564 5.69754 9.70853 5.69736C10.3641 5.70874 10.9884 5.97966 11.4445 6.4507C11.6503 6.6777 11.8085 6.94363 11.9097 7.2328C12.011 7.52196 12.0533 7.82848 12.0341 8.13426C12.0342 8.18627 12.055 8.23609 12.0919 8.2728C12.1287 8.30952 12.1786 8.33013 12.2306 8.33013L12.2371 8.33799C12.263 8.33799 12.2886 8.33289 12.3125 8.32297C12.3364 8.31305 12.3581 8.29852 12.3763 8.2802C12.3946 8.26188 12.4091 8.24014 12.4189 8.21622C12.4287 8.1923 12.4337 8.16667 12.4337 8.14081C12.4533 7.36127 12.2109 6.70619 11.7327 6.18212C11.2545 5.65806 10.5863 5.36327 9.73473 5.30431C9.72557 5.30367 9.71638 5.30367 9.70722 5.30431ZM10.0282 6.36489C10.0019 6.36411 9.97575 6.36852 9.95117 6.37787C9.92659 6.38721 9.9041 6.4013 9.88497 6.41934C9.86584 6.43737 9.85045 6.459 9.83967 6.48298C9.8289 6.50697 9.82296 6.53284 9.82218 6.55912C9.82141 6.5854 9.82582 6.61158 9.83516 6.63615C9.8445 6.66073 9.85859 6.68323 9.87663 6.70236C9.89467 6.72149 9.91629 6.73688 9.94028 6.74765C9.96426 6.75843 9.99013 6.76437 10.0164 6.76514C10.6649 6.7979 10.9794 7.12544 11.0187 7.80017C11.0204 7.85115 11.0418 7.89947 11.0785 7.93492C11.1152 7.97037 11.1642 7.99017 11.2152 7.99014H11.2218C11.2482 7.98932 11.2741 7.98319 11.2981 7.97212C11.3221 7.96104 11.3435 7.94525 11.3613 7.92568C11.379 7.90612 11.3926 7.88318 11.4013 7.85824C11.41 7.8333 11.4135 7.80686 11.4117 7.78052C11.3659 6.90271 10.8877 6.41074 10.0361 6.36489C10.0334 6.36484 10.0308 6.36484 10.0282 6.36489Z" />
</symbol><symbol viewBox="0 0 19 18" id="whatsapp">
<path d="M14.7574 3.62178C14.0614 2.92064 13.233 2.36477 12.3203 1.98646C11.4076 1.60814 10.4289 1.41492 9.44088 1.41801C5.29967 1.41801 1.92908 4.7886 1.92908 8.93266C1.92908 10.2568 2.27599 11.5516 2.93286 12.689L1.86652 16.5838L5.85038 15.5383C6.95176 16.1382 8.18576 16.453 9.43993 16.4539H9.44278C13.584 16.4539 16.9574 13.0833 16.9574 8.93929C16.9599 7.95166 16.7667 6.97331 16.389 6.06077C16.0112 5.14824 15.4564 4.3196 14.7565 3.62273L14.7574 3.62178ZM9.44278 15.1857C8.3235 15.1859 7.22478 14.885 6.26175 14.3146L6.03332 14.1781L3.66935 14.7971L4.30063 12.4928L4.15276 12.2559C3.52504 11.2613 3.19333 10.1087 3.19637 8.93266C3.19837 7.27588 3.85761 5.68757 5.0294 4.51632C6.20119 3.34507 7.78979 2.68655 9.44657 2.6853C11.1139 2.6853 12.6845 3.33743 13.8627 4.51562C14.4441 5.09494 14.9049 5.78373 15.2186 6.5422C15.5323 7.30068 15.6925 8.11378 15.6901 8.93455C15.6873 12.3819 12.8854 15.1848 9.44278 15.1848V15.1857ZM12.8674 10.5061C12.6807 10.4113 11.7565 9.95824 11.5849 9.89569C11.4134 9.83313 11.2883 9.8009 11.1613 9.99047C11.0371 10.1772 10.6759 10.6009 10.566 10.7279C10.456 10.8521 10.347 10.8701 10.1603 10.7753C9.97358 10.6805 9.366 10.4824 8.64942 9.8426C8.09207 9.34498 7.71388 8.72887 7.60392 8.54214C7.49397 8.35541 7.5916 8.25209 7.68734 8.16015C7.77359 8.07674 7.87407 7.94119 7.96885 7.83124C8.06364 7.72129 8.09302 7.64451 8.15558 7.5175C8.21814 7.39333 8.18781 7.28338 8.14041 7.18859C8.09302 7.0938 7.71672 6.16964 7.56317 5.79334C7.41246 5.42557 7.25511 5.47675 7.13947 5.47012C7.02952 5.46443 6.90535 5.46443 6.78118 5.46443C6.65701 5.46443 6.45227 5.51182 6.28071 5.69855C6.10915 5.88528 5.62289 6.3412 5.62289 7.26537C5.62289 8.18953 6.29493 9.08147 6.38971 9.20848C6.4845 9.33265 7.71388 11.2312 9.59728 12.0435C10.0447 12.236 10.3944 12.3516 10.6665 12.4407C11.1167 12.5829 11.5252 12.562 11.8485 12.5146C12.2096 12.4615 12.9593 12.0616 13.1167 11.6227C13.274 11.1838 13.274 10.8085 13.2266 10.7308C13.1821 10.6473 13.0579 10.6009 12.8684 10.5052L12.8674 10.5061Z" />
</symbol><symbol viewBox="0 0 31 31" id="vk">
<path d="M27.2554 9.61556C27.4231 9.06859 27.2554 8.66748 26.4625 8.66748H23.836C23.1676 8.66748 22.8622 9.01448 22.6946 9.39559C22.6946 9.39559 21.3591 12.5939 19.4668 14.6676C18.8559 15.2711 18.5769 15.4616 18.2439 15.4616C18.0774 15.4616 17.8355 15.2711 17.8355 14.7241V9.61556C17.8355 8.9592 17.6427 8.66748 17.0857 8.66748H12.9585C12.5417 8.66748 12.2902 8.97096 12.2902 9.26032C12.2902 9.88139 13.2363 10.0249 13.3333 11.7752V15.5722C13.3333 16.4038 13.1812 16.5556 12.8459 16.5556C11.956 16.5556 9.79056 13.3455 8.50543 9.67084C8.25511 8.95684 8.0024 8.66866 7.33169 8.66866H4.70633C3.95538 8.66866 3.80566 9.01566 3.80566 9.39677C3.80566 10.0814 4.69555 13.469 7.9509 17.9494C10.1211 21.0089 13.1765 22.6675 15.9599 22.6675C17.6283 22.6675 17.8343 22.2993 17.8343 21.6641V19.3516C17.8343 18.6152 17.9936 18.467 18.5218 18.467C18.9098 18.467 19.5781 18.6599 21.1364 20.1338C22.9161 21.8817 23.2108 22.6663 24.2108 22.6663H26.8362C27.586 22.6663 27.9608 22.2981 27.7452 21.5712C27.5093 20.8478 26.6589 19.795 25.5307 18.5493C24.9175 17.8389 24.0012 17.0743 23.7222 16.692C23.3329 16.1992 23.4455 15.9815 23.7222 15.544C23.7234 15.5451 26.9224 11.12 27.2554 9.61556Z" />
</symbol><symbol viewBox="0 0 3 4" id="point">
<circle cx="1.5" cy="2" r="1.5" />
</symbol><symbol viewBox="0 0 18 18" id="loupe">
<path d="M16.8676 15.2581L13.5441 11.9344C13.3941 11.7844 13.1907 11.7011 12.9774 11.7011H12.434C13.3541 10.5243 13.9008 9.04417 13.9008 7.43401C13.9008 3.60364 10.7973 0.5 6.96711 0.5C3.13693 0.5 0.0334473 3.60364 0.0334473 7.43401C0.0334473 11.2644 3.13693 14.368 6.96711 14.368C8.57718 14.368 10.0573 13.8213 11.234 12.9012V13.4446C11.234 13.658 11.3173 13.8613 11.4673 14.0113L14.7908 17.335C15.1042 17.6483 15.6108 17.6483 15.9209 17.335L16.8642 16.3916C17.1776 16.0782 17.1776 15.5715 16.8676 15.2581ZM6.96711 11.7011C4.61033 11.7011 2.70024 9.79424 2.70024 7.43401C2.70024 5.07711 4.607 3.16693 6.96711 3.16693C9.32388 3.16693 11.234 5.07378 11.234 7.43401C11.234 9.79091 9.32722 11.7011 6.96711 11.7011Z" />
</symbol><symbol viewBox="0 0 613 273" id="error">
<path d="M30 201.328H128.868V237.481H170.507V201.328H196.053V166.481H170.507V31.8119H115.994L30 167.083V201.328ZM129.672 166.481H73.8518V164.874L128.063 79.2122H129.672V166.481Z" />
<path d="M305.834 242C357.631 242 388.911 202.634 389.011 134.847C389.112 67.5629 357.43 29 305.834 29C254.137 29 222.757 67.4625 222.656 134.847C222.455 202.433 253.936 241.9 305.834 242ZM305.834 205.948C282.198 205.948 266.91 182.248 267.011 134.847C267.111 88.1499 282.299 64.6507 305.834 64.6507C329.268 64.6507 344.556 88.1499 344.556 134.847C344.657 182.248 329.369 205.948 305.834 205.948Z" />
<path d="M416.947 201.328H515.814V237.481H557.453V201.328H583V166.481H557.453V31.8119H502.94L416.947 167.083V201.328ZM516.619 166.481H460.798V164.874L515.01 79.2122H516.619V166.481Z" />
</symbol><symbol viewBox="0 0 15 15" id="clock">
<path d="M7.5 0C3.36443 0 0 3.36443 0 7.5C0 11.6356 3.36443 15 7.5 15C11.6356 15 15 11.6356 15 7.5C15 3.36443 11.6356 0 7.5 0ZM7.5 13.3607C4.26835 13.3607 1.63934 10.7317 1.63934 7.5C1.63934 4.26851 4.26835 1.63934 7.5 1.63934C10.7317 1.63934 13.3607 4.26851 13.3607 7.5C13.3607 10.7317 10.7317 13.3607 7.5 13.3607Z"/>
<path d="M8.14909 7.5093V4.36588C8.14909 4.01489 7.86467 3.73047 7.51382 3.73047C7.16286 3.73047 6.87842 4.01489 6.87842 4.36588V7.71229C6.87842 7.72228 6.88088 7.73166 6.88136 7.74165C6.87301 7.91443 6.93253 8.08985 7.06448 8.22183L9.43088 10.5881C9.67909 10.8363 10.0814 10.8363 10.3294 10.5881C10.5774 10.3399 10.5776 9.93757 10.3294 9.68953L8.14909 7.5093Z"/>
</symbol><symbol viewBox="0 0 35 35" id="exclamation">
<path d="M17.5 0C7.875 0 0 7.875 0 17.5C0 27.125 7.875 35 17.5 35C27.125 35 35 27.125 35 17.5C35 7.875 27.125 0 17.5 0ZM17.5 3.5C19.425 3.5 20.825 5.075 20.65 7L19.25 21H15.75L15.05 14L14.35 7C14.175 5.075 15.575 3.5 17.5 3.5ZM17.5 31.5C15.575 31.5 14 29.925 14 28C14 26.075 15.575 24.5 17.5 24.5C19.425 24.5 21 26.075 21 28C21 29.925 19.425 31.5 17.5 31.5Z" />
</symbol><symbol viewBox="0 0 15 15" id="mail">
<path d="M13.6603 13.3928C13.9975 13.3928 14.2896 13.2814 14.538 13.0616L10.2883 8.81169C10.1863 8.8847 10.0875 8.9557 9.99411 9.02321C9.67608 9.25753 9.41796 9.44037 9.21976 9.57139C9.02158 9.70271 8.75791 9.83656 8.42877 9.97322C8.09941 10.11 7.79257 10.1782 7.50792 10.1782H7.49959H7.49126C7.20659 10.1782 6.89975 10.1101 6.57041 9.97322C6.24108 9.83656 5.97741 9.70271 5.77942 9.57139C5.58124 9.44037 5.32326 9.25756 5.00507 9.02321C4.9164 8.95821 4.81806 8.88688 4.71174 8.81055L0.461182 13.0616C0.709523 13.2814 1.00187 13.3928 1.33902 13.3928H13.6603V13.3928Z"/>
<path d="M0.845514 6.13653C0.52751 5.92452 0.245509 5.68171 0 5.4082V11.8741L3.7457 8.12838C2.99635 7.60523 2.03085 6.94204 0.845514 6.13653Z"/>
<path d="M14.1632 6.13653C13.0231 6.90822 12.0541 7.57255 11.2561 8.12988L15.0003 11.8742V5.4082C14.7602 5.67621 14.4812 5.91886 14.1632 6.13653Z"/>
<path d="M13.6607 1.60742H1.33944C0.909593 1.60742 0.579117 1.75258 0.347606 2.04258C0.115904 2.33273 0.000244141 2.69559 0.000244141 3.13075C0.000244141 3.48225 0.153731 3.86311 0.46057 4.27343C0.767408 4.68359 1.09391 5.00576 1.43991 5.24011C1.62959 5.37412 2.2016 5.77178 3.15594 6.43296C3.67111 6.78996 4.11913 7.10113 4.50413 7.36965C4.83229 7.5983 5.1153 7.79631 5.34896 7.96064C5.37578 7.97946 5.41797 8.00963 5.47396 8.04966C5.53428 8.09299 5.61062 8.14798 5.70479 8.21598C5.88614 8.34713 6.03679 8.45315 6.15678 8.53415C6.27661 8.61516 6.42179 8.70566 6.59211 8.80615C6.76229 8.90651 6.9228 8.98197 7.07346 9.03216C7.22414 9.08233 7.36363 9.10749 7.49195 9.10749H7.50029H7.50862C7.63691 9.10749 7.77643 9.08233 7.92714 9.03216C8.07777 8.98197 8.23815 8.90667 8.40846 8.80615C8.57862 8.70566 8.72361 8.61497 8.84382 8.53415C8.96381 8.45315 9.11446 8.34716 9.29584 8.21598C9.38982 8.14798 9.46615 8.09297 9.52647 8.0498C9.58249 8.0096 9.62465 7.97962 9.65164 7.96064C9.83367 7.83398 10.1173 7.63678 10.4987 7.37196C11.1927 6.8898 12.2147 6.18012 13.569 5.24011C13.9764 4.9556 14.3167 4.61227 14.5902 4.2106C14.8632 3.80894 15.0001 3.38761 15.0001 2.94676C15.0001 2.57843 14.8674 2.26326 14.6025 2.00075C14.3374 1.73858 14.0234 1.60742 13.6607 1.60742Z"/>
</symbol><symbol viewBox="0 0 20 20" id="password">
<path d="M15.625 7.5H15V5C15 2.2425 12.7575 0 10 0C7.2425 0 5 2.2425 5 5V7.5H4.375C3.34167 7.5 2.5 8.34083 2.5 9.375V18.125C2.5 19.1592 3.34167 20 4.375 20H15.625C16.6583 20 17.5 19.1592 17.5 18.125V9.375C17.5 8.34083 16.6583 7.5 15.625 7.5ZM6.66667 5C6.66667 3.16167 8.16167 1.66667 10 1.66667C11.8383 1.66667 13.3333 3.16167 13.3333 5V7.5H6.66667V5ZM10.8333 13.935V15.8333C10.8333 16.2933 10.4608 16.6667 10 16.6667C9.53917 16.6667 9.16667 16.2933 9.16667 15.8333V13.935C8.67083 13.6458 8.33333 13.1142 8.33333 12.5C8.33333 11.5808 9.08083 10.8333 10 10.8333C10.9192 10.8333 11.6667 11.5808 11.6667 12.5C11.6667 13.1142 11.3292 13.6458 10.8333 13.935Z"/>
</symbol><symbol viewBox="0 0 18 18" id="setup">
<path d="M6.91109 4.29814C6.91109 2.90551 5.937 1.73697 4.63453 1.4358V0.661897C4.63453 0.296309 4.33822 0 3.97264 0C3.60705 0 3.31074 0.296309 3.31074 0.661897V1.4358C2.00835 1.73689 1.03418 2.90551 1.03418 4.29814C1.03418 5.69077 2.00827 6.85931 3.31074 7.16048V17.3381C3.31074 17.7037 3.60705 18 3.97264 18C4.33822 18 4.63453 17.7037 4.63453 17.3381V7.16048C5.937 6.85931 6.91109 5.69077 6.91109 4.29814ZM2.35805 4.29814C2.35805 3.40781 3.08238 2.68348 3.97271 2.68348C4.86303 2.68348 5.58737 3.40781 5.58737 4.29814C5.58737 5.18846 4.86303 5.9128 3.97271 5.9128C3.08238 5.9128 2.35805 5.18846 2.35805 4.29814Z"/>
<path d="M9.66188 8.89222V0.661897C9.66188 0.296309 9.36557 0 8.99998 0C8.63439 0 8.33808 0.296309 8.33808 0.661897V8.89222C7.03569 9.19331 6.06152 10.3619 6.06152 11.7546C6.06152 13.1472 7.03562 14.3157 8.33808 14.6169V17.3381C8.33808 17.7037 8.63439 18 8.99998 18C9.36557 18 9.66188 17.7037 9.66188 17.3381V14.6169C10.9643 14.3158 11.9384 13.1472 11.9384 11.7546C11.9384 10.3619 10.9643 9.19338 9.66188 8.89222ZM7.38539 11.7546C7.38539 10.8642 8.10973 10.1399 9.00005 10.1399C9.89038 10.1399 10.6147 10.8642 10.6147 11.7546C10.6147 12.6449 9.89038 13.3692 9.00005 13.3692C8.10973 13.3692 7.38539 12.6449 7.38539 11.7546Z"/>
<path d="M16.9658 7.20151C16.9658 5.80888 15.9917 4.64034 14.6892 4.33918V0.661897C14.6892 0.296309 14.3929 0 14.0273 0C13.6617 0 13.3654 0.296309 13.3654 0.661897V4.33918C12.063 4.64027 11.0889 5.80888 11.0889 7.20151C11.0889 8.59415 12.063 9.76269 13.3654 10.0639V17.3381C13.3654 17.7037 13.6617 18 14.0273 18C14.3929 18 14.6892 17.7037 14.6892 17.3381V10.0639C15.9917 9.76269 16.9658 8.59415 16.9658 7.20151ZM12.4127 7.20151C12.4127 6.31119 13.1371 5.58685 14.0274 5.58685C14.9177 5.58685 15.6421 6.31119 15.6421 7.20151C15.6421 8.09184 14.9177 8.81618 14.0274 8.81618C13.1371 8.81618 12.4127 8.09184 12.4127 7.20151Z"/>
</symbol><symbol viewBox="0 0 40 40" id="arrowСircle">
<circle cx="20.2856" cy="20.2866" r="19.2143" stroke-width="2"/>
<path d="M17 26.8574L23.5714 20.286L17 13.7146" stroke-width="2" stroke-linecap="round" stroke-linejoin="round"/>
</symbol><symbol viewBox="0 0 66 66" id="saving">
<path d="M48.922 39.9641L57.4843 31.4915C60.6822 28.2936 66.8326 32.3282 63.5098 36.2373L53.1419 48.4352C52.736 48.9125 52.2696 49.3357 51.7551 49.6936C50.0838 50.7617 48.0933 51.1176 46.132 51.1176H30.7462C29.6335 51.1176 28.5213 51.182 27.416 51.3104L22.9909 51.8075L13.8125 42.9008C13.8125 42.9008 19.0192 33.0682 29.233 35.8943C31.1432 36.4232 33.1198 36.675 35.1019 36.675H45.2136C49.9738 36.675 50.0114 44.2385 45.1739 44.2385H36.3713" fill="white"/>
<path d="M16.9617 63.3978L25.6935 54.4395C25.696 54.4371 25.696 54.4331 25.6935 54.4306L10.8772 40.0525C10.8747 40.05 10.8707 40.0505 10.8683 40.0525L2.0542 49.203L16.9617 63.3978Z" fill="#FFD54F" fill-opacity="0.4"/>
<path d="M12.5318 13.3267C9.76411 13.5889 7.59863 15.9194 7.59863 18.756V24.5629C7.59863 25.5656 8.41149 26.379 9.41468 26.379H21.8673C22.8704 26.379 23.6833 25.5656 23.6833 24.5629V18.756C23.6833 15.9174 21.5149 13.5849 18.7437 13.3262" fill="#FFD54F"/>
<path d="M21.7343 8.06661C21.7343 11.432 19.0062 14.1601 15.6408 14.1601C12.2754 14.1601 9.54736 11.432 9.54736 8.06661C9.54736 4.70118 12.2754 1.97266 15.6408 1.97266C19.0062 1.97266 21.7343 4.70118 21.7343 8.06661Z" fill="white"/>
<path d="M28.6167 13.3267C25.8491 13.5889 23.6831 15.9194 23.6831 18.756V24.5629C23.6831 25.5656 24.4965 26.379 25.4996 26.379H37.9522C38.9554 26.379 39.7683 25.5656 39.7683 24.5629V18.756C39.7683 15.9174 37.5993 13.5849 34.8287 13.3262" fill="url(#paint0_linear_2831_1744)"/>
<path d="M37.8192 8.06661C37.8192 11.432 35.0912 14.1601 31.7258 14.1601C28.3604 14.1601 25.6318 11.432 25.6318 8.06661C25.6318 4.70118 28.3604 1.97266 31.7258 1.97266C35.0912 1.97266 37.8192 4.70118 37.8192 8.06661Z" fill="white"/>
<path d="M44.7017 13.3267C41.9335 13.5889 39.7681 15.9194 39.7681 18.756V24.5629C39.7681 25.5656 40.5814 26.379 41.5841 26.379H54.0367C55.0399 26.379 55.8532 25.5656 55.8532 24.5629V18.756C55.8532 15.9174 53.6843 13.5849 50.9131 13.3262" fill="#FFD54F"/>
<path d="M53.9047 8.06661C53.9047 11.432 51.1762 14.1601 47.8107 14.1601C44.4453 14.1601 41.7173 11.432 41.7173 8.06661C41.7173 4.70118 44.4453 1.97266 47.8107 1.97266C51.1762 1.97266 53.9047 4.70118 53.9047 8.06661Z" fill="white"/>
<path d="M64.2063 30.5515C63.2339 29.6544 61.911 29.1003 60.5767 29.0309C59.0615 28.9526 57.642 29.4928 56.5848 30.5505L49.3613 37.6982C49.2185 37.4509 49.0554 37.2175 48.8725 37.0009C47.9839 35.9456 46.6843 35.3647 45.2137 35.3647H35.1016C33.1948 35.3647 31.3347 35.1174 29.5731 34.6302C24.9805 33.3599 20.593 34.2877 16.8841 37.3151C15.3759 38.5463 14.2756 39.8855 13.5797 40.8619L11.7666 39.1024C11.5282 38.8709 11.205 38.7396 10.8725 38.7396C10.8695 38.7396 10.867 38.7396 10.864 38.7396C10.5196 38.7421 10.1865 38.8853 9.94759 39.1331L1.13354 48.2832C0.89761 48.5281 0.769238 48.8572 0.776673 49.1972C0.784108 49.5377 0.926358 49.8609 1.17269 50.0953L16.0802 64.2901C16.3275 64.5255 16.6447 64.643 16.9615 64.643C17.294 64.643 17.6266 64.5136 17.8769 64.2569L26.6087 55.2986C26.8471 55.0537 26.9794 54.7192 26.973 54.3772C26.9665 54.0402 26.8253 53.715 26.5834 53.4801L25.8231 52.7426L27.5633 52.5468C28.616 52.4243 29.6866 52.3624 30.7463 52.3624H46.1316C48.6317 52.3624 50.755 51.8157 52.4432 50.7372C52.4571 50.7283 52.4709 50.7188 52.4848 50.7094C53.0895 50.2891 53.6382 49.791 54.115 49.2294L64.4829 37.0321C66.2573 34.9449 66.1463 32.3403 64.2063 30.5515ZM16.9282 61.5685L3.86603 49.1308L10.9027 41.8255L23.8886 54.4272L16.9282 61.5685ZM62.5355 35.3766L52.1676 47.5745C51.8385 47.9616 51.4613 48.3055 51.0455 48.597C49.7781 49.3994 48.1251 49.8068 46.1316 49.8068H30.7458C29.5885 49.8068 28.4183 49.8748 27.2728 50.0081L23.4475 50.4373L15.4378 42.6646C15.9945 41.8394 17.018 40.5056 18.5004 39.2952C21.5823 36.7793 25.0786 36.0383 28.8916 37.0936C30.8752 37.6422 32.9643 37.9208 35.1016 37.9208H45.2137C47.0297 37.9208 47.5145 39.494 47.5145 40.4233C47.5145 41.1023 47.2964 41.7487 46.9162 42.1967C46.5039 42.682 45.9175 42.9278 45.1735 42.9278H36.3709C35.6651 42.9278 35.0931 43.5003 35.0931 44.2061C35.0931 44.9119 35.6651 45.4838 36.3709 45.4838H45.1735C46.6595 45.4838 47.97 44.9039 48.8641 43.8512C49.6081 42.9759 50.0324 41.825 50.068 40.5948L58.3874 32.3626C59.5765 31.1736 61.4342 31.472 62.4735 32.4305C63.0108 32.9262 63.7335 33.9675 62.5355 35.3766Z"/>
<path d="M32.3856 43.8654C32.2245 43.1779 31.5371 42.7522 30.8496 42.9128C30.1626 43.0739 29.7359 43.7613 29.8975 44.4488L29.9094 44.5008C30.0476 45.0896 30.5725 45.4872 31.1524 45.4872C31.2491 45.4872 31.3472 45.4762 31.4454 45.4534C32.1328 45.2924 32.5591 44.6044 32.398 43.9174L32.3856 43.8654Z"/>
<path d="M9.41462 27.6252H21.8672C22.5452 27.6252 23.1727 27.4051 23.6832 27.0334C24.1938 27.4051 24.8212 27.6252 25.4993 27.6252H37.9524C38.6304 27.6252 39.2579 27.4051 39.7684 27.0334C40.2789 27.4051 40.9064 27.6252 41.5844 27.6252H54.037C55.743 27.6252 57.1308 26.2369 57.1308 24.5309V18.7239C57.1308 16.1158 55.6712 13.8502 53.4864 12.7325C54.5451 11.4558 55.1825 9.81816 55.1825 8.03384C55.1825 3.96905 51.8755 0.662109 47.8107 0.662109C43.746 0.662109 40.439 3.96905 40.439 8.03384C40.439 9.81816 41.0764 11.4563 42.1351 12.7325C41.1909 13.2163 40.3825 13.9147 39.7684 14.7617C39.1543 13.9142 38.3459 13.2158 37.4012 12.7325C38.4599 11.4563 39.0973 9.81816 39.0973 8.03384C39.0973 3.96905 35.7904 0.662109 31.7256 0.662109C27.6608 0.662109 24.3539 3.96905 24.3539 8.03384C24.3539 9.81816 24.9917 11.4563 26.0504 12.733C25.1057 13.2163 24.2973 13.9147 23.6832 14.7622C23.0691 13.9147 22.2607 13.2163 21.316 12.7325C22.3747 11.4563 23.0121 9.81816 23.0121 8.03433C23.0121 3.96905 19.7052 0.662109 15.6404 0.662109C11.5761 0.662109 8.26919 3.96905 8.26919 8.03433C8.26919 9.81816 8.90659 11.4563 9.96528 12.733C7.78048 13.8507 6.32031 16.1168 6.32031 18.7244V24.5309C6.32031 26.2369 7.70861 27.6252 9.41462 27.6252ZM47.8112 3.21815C50.4664 3.21815 52.6269 5.37817 52.6269 8.03384C52.6269 10.689 50.4664 12.8495 47.8112 12.8495C45.1556 12.8495 42.9956 10.6895 42.9956 8.03384C42.9951 5.37817 45.1556 3.21815 47.8112 3.21815ZM44.4909 14.6125C45.4896 15.1186 46.6172 15.4056 47.8107 15.4056C49.0047 15.4056 50.1323 15.1186 51.1306 14.6125C53.1166 14.9585 54.5753 16.67 54.5753 18.7239V24.5309C54.5753 24.8278 54.3339 25.0691 54.037 25.0691H41.5844C41.2881 25.0691 41.0467 24.8278 41.0467 24.5309V18.7239C41.0462 16.6704 42.5054 14.9585 44.4909 14.6125ZM31.7261 3.21815C34.3812 3.21815 36.5418 5.37817 36.5418 8.03384C36.5418 10.689 34.3812 12.8495 31.7261 12.8495C29.0704 12.8495 26.9104 10.6895 26.9104 8.03384C26.9104 5.37817 29.0704 3.21815 31.7261 3.21815ZM28.4062 14.6125C29.4045 15.1186 30.5321 15.4056 31.7261 15.4056C32.9201 15.4056 34.0472 15.1186 35.0459 14.6125C37.0315 14.9585 38.4906 16.67 38.4906 18.7239V24.5309C38.4906 24.8278 38.2493 25.0691 37.9524 25.0691H25.4998C25.2029 25.0691 24.9615 24.8278 24.9615 24.5309V18.7239C24.9615 16.6704 26.4207 14.9585 28.4062 14.6125ZM15.6409 3.21815C18.2961 3.21815 20.4566 5.37817 20.4566 8.03384C20.4566 10.689 18.2961 12.8495 15.6409 12.8495C12.9857 12.8495 10.8252 10.689 10.8252 8.03384C10.8252 5.37817 12.9857 3.21815 15.6409 3.21815ZM8.87635 18.7239C8.87635 16.6704 10.3355 14.9585 12.3211 14.6125C13.3198 15.1186 14.4469 15.4056 15.6409 15.4056C16.8349 15.4056 17.962 15.1186 18.9607 14.6125C20.9468 14.9585 22.4055 16.67 22.4055 18.7239V24.5309C22.4055 24.8278 22.1641 25.0691 21.8672 25.0691H9.41462C9.11773 25.0691 8.87635 24.8278 8.87635 24.5309V18.7239Z"/>
</symbol><symbol viewBox="0 0 55 55" id="lift">
<rect x="26.9424" y="2.63281" width="25.4375" height="11.5" fill="#B8C4FF"/>
<path d="M49.3838 0.507812H30.2939C27.677 0.507812 25.5479 2.63696 25.5479 5.25391V11.582C25.5479 14.199 27.677 16.3281 30.2939 16.3281H38.2041V19.5977H30.2939C27.677 19.5977 25.5479 21.7264 25.5479 24.3433V30.6715C25.5479 33.2888 27.677 35.4176 30.2939 35.4176H38.2041V38.6871H30.2939C27.677 38.6871 25.5479 40.8162 25.5479 43.4332V49.7613C25.5479 52.3783 27.677 54.5074 30.2939 54.5074H49.3838C52.0007 54.5074 54.1299 52.3783 54.1299 49.7613V43.4332C54.1299 40.8162 52.0007 38.6871 49.3838 38.6871H41.3682V35.4176H49.3838C52.0007 35.4176 54.1299 33.2888 54.1299 30.6715V24.3433C54.1299 21.7264 52.0007 19.5977 49.3838 19.5977H41.3682V16.3281H49.3838C52.0007 16.3281 54.1299 14.199 54.1299 11.582V5.25391C54.1299 2.63696 52.0007 0.507812 49.3838 0.507812ZM50.9658 43.4332V49.7613C50.9658 50.6339 50.256 51.3433 49.3838 51.3433H30.2939C29.4214 51.3433 28.7119 50.6339 28.7119 49.7613V43.4332C28.7119 42.561 29.4214 41.8512 30.2939 41.8512H49.3838C50.256 41.8512 50.9658 42.561 50.9658 43.4332ZM50.9658 24.3433V30.6715C50.9658 31.5441 50.256 32.2535 49.3838 32.2535H30.2939C29.4214 32.2535 28.7119 31.5441 28.7119 30.6715V24.3433C28.7119 23.4712 29.4214 22.7617 30.2939 22.7617H49.3838C50.256 22.7617 50.9658 23.4712 50.9658 24.3433ZM50.9658 11.582C50.9658 12.4542 50.256 13.1641 49.3838 13.1641H30.2939C29.4214 13.1641 28.7119 12.4542 28.7119 11.582V5.25391C28.7119 4.38132 29.4214 3.67188 30.2939 3.67188H49.3838C50.256 3.67188 50.9658 4.38132 50.9658 5.25391V11.582Z"/>
<path d="M8.14551 48.1797C9.01933 48.1797 9.72754 47.4715 9.72754 46.5977C9.72754 45.7242 9.01933 45.0156 8.14551 45.0156C5.51579 45.0156 3.29395 42.8424 3.29395 40.2695C3.29395 39.3961 2.58574 38.6875 1.71191 38.6875C0.838089 38.6875 0.129883 39.3961 0.129883 40.2695C0.129883 44.642 3.77226 48.1797 8.14551 48.1797Z" fill="#FEC100"/>
<path d="M1.71191 35.418C2.58574 35.418 3.29395 34.7098 3.29395 33.8359V27.5078C3.29395 26.6344 2.58574 25.9258 1.71191 25.9258C0.838089 25.9258 0.129883 26.6344 0.129883 27.5078V33.8359C0.129883 34.7098 0.838089 35.418 1.71191 35.418Z" fill="#FEC100"/>
<path d="M1.71191 22.7621C2.58574 22.7621 3.29395 22.0535 3.29395 21.1801V14.7465C3.29395 12.1737 5.51579 10.0004 8.14551 10.0004H15.5765L10.432 13.4298C9.70488 13.9147 9.50836 14.8969 9.99327 15.6236C10.4802 16.3545 11.4637 16.5448 12.1871 16.0624L21.6793 9.73469C22.1193 9.44094 22.3838 8.94697 22.3838 8.41798C22.3838 7.88898 22.1193 7.39501 21.6793 7.10168L12.1871 0.773551C11.4599 0.289054 10.4778 0.485572 9.99327 1.21232C9.50836 1.93948 9.70488 2.92165 10.432 3.40615L15.5765 6.83594H8.14551C3.77309 6.83594 0.129883 10.3729 0.129883 14.7461L0.129883 21.1797C0.129883 22.0535 0.838089 22.7621 1.71191 22.7621Z" fill="#FEC100"/>
<path d="M14.4736 45.0156C13.5998 45.0156 12.8916 45.7242 12.8916 46.5977C12.8916 47.4715 13.5998 48.1797 14.4736 48.1797H20.8018C21.6756 48.1797 22.3838 47.4715 22.3838 46.5977C22.3838 45.7242 21.6756 45.0156 20.8018 45.0156H14.4736Z" fill="#FEC100"/>
<path d="M46.2197 6.83594H33.458C32.5842 6.83594 31.876 7.54414 31.876 8.41797C31.876 9.29138 32.5842 10 33.458 10H46.2197C47.0931 10 47.8018 9.29138 47.8018 8.41797C47.8018 7.54414 47.0931 6.83594 46.2197 6.83594Z"/>
<path d="M31.876 27.5078C31.876 28.3816 32.5842 29.0898 33.458 29.0898H46.2197C47.0931 29.0898 47.8018 28.3816 47.8018 27.5078C47.8018 26.6344 47.0931 25.9258 46.2197 25.9258H33.458C32.5842 25.9258 31.876 26.6344 31.876 27.5078Z"/>
<path d="M31.876 46.5977C31.876 47.4715 32.5842 48.1797 33.458 48.1797H46.2197C47.0931 48.1797 47.8018 47.4715 47.8018 46.5977C47.8018 45.7242 47.0931 45.0156 46.2197 45.0156H33.458C32.5842 45.0156 31.876 45.7238 31.876 46.5977Z"/>
</symbol>
</svg>